<?xml version="1.0" encoding="utf-8"?>
<svg xmlns="http://www.w3.org/2000/svg" xmlns:xlink="http://www.w3.org/1999/xlink" width="600" height="400" viewBox="0 0 2400 1600">
<defs>
  <clipPath id="clip6300">
    <rect x="0" y="0" width="2400" height="1600"/>
  </clipPath>
</defs>
<path clip-path="url(#clip6300)" d="
M0 1600 L2400 1600 L2400 0 L0 0  Z
  " fill="#ffffff" fill-rule="evenodd" fill-opacity="1"/>
<defs>
  <clipPath id="clip6301">
    <rect x="480" y="0" width="1681" height="1600"/>
  </clipPath>
</defs>
<path clip-path="url(#clip6300)" d="
M141.865 1487.47 L2352.76 1487.47 L2352.76 47.2441 L141.865 47.2441  Z
  " fill="#ffffff" fill-rule="evenodd" fill-opacity="1"/>
<defs>
  <clipPath id="clip6302">
    <rect x="141" y="47" width="2212" height="1441"/>
  </clipPath>
</defs>
<polyline clip-path="url(#clip6302)" style="stroke:#000000; stroke-width:2; stroke-opacity:0.1; fill:none" points="
  206.087,1487.47 206.087,47.2441 
  "/>
<polyline clip-path="url(#clip6302)" style="stroke:#000000; stroke-width:2; stroke-opacity:0.1; fill:none" points="
  709.299,1487.47 709.299,47.2441 
  "/>
<polyline clip-path="url(#clip6302)" style="stroke:#000000; stroke-width:2; stroke-opacity:0.1; fill:none" points="
  1212.51,1487.47 1212.51,47.2441 
  "/>
<polyline clip-path="url(#clip6302)" style="stroke:#000000; stroke-width:2; stroke-opacity:0.1; fill:none" points="
  1715.72,1487.47 1715.72,47.2441 
  "/>
<polyline clip-path="url(#clip6302)" style="stroke:#000000; stroke-width:2; stroke-opacity:0.1; fill:none" points="
  2218.93,1487.47 2218.93,47.2441 
  "/>
<polyline clip-path="url(#clip6302)" style="stroke:#000000; stroke-width:2; stroke-opacity:0.1; fill:none" points="
  141.865,1259.12 2352.76,1259.12 
  "/>
<polyline clip-path="url(#clip6302)" style="stroke:#000000; stroke-width:2; stroke-opacity:0.1; fill:none" points="
  141.865,1002.09 2352.76,1002.09 
  "/>
<polyline clip-path="url(#clip6302)" style="stroke:#000000; stroke-width:2; stroke-opacity:0.1; fill:none" points="
  141.865,745.063 2352.76,745.063 
  "/>
<polyline clip-path="url(#clip6302)" style="stroke:#000000; stroke-width:2; stroke-opacity:0.1; fill:none" points="
  141.865,488.033 2352.76,488.033 
  "/>
<polyline clip-path="url(#clip6302)" style="stroke:#000000; stroke-width:2; stroke-opacity:0.1; fill:none" points="
  141.865,231.004 2352.76,231.004 
  "/>
<polyline clip-path="url(#clip6300)" style="stroke:#000000; stroke-width:4; stroke-opacity:1; fill:none" points="
  141.865,1487.47 2352.76,1487.47 
  "/>
<polyline clip-path="url(#clip6300)" style="stroke:#000000; stroke-width:4; stroke-opacity:1; fill:none" points="
  141.865,1487.47 141.865,47.2441 
  "/>
<polyline clip-path="url(#clip6300)" style="stroke:#000000; stroke-width:4; stroke-opacity:1; fill:none" points="
  206.087,1487.47 206.087,1465.87 
  "/>
<polyline clip-path="url(#clip6300)" style="stroke:#000000; stroke-width:4; stroke-opacity:1; fill:none" points="
  709.299,1487.47 709.299,1465.87 
  "/>
<polyline clip-path="url(#clip6300)" style="stroke:#000000; stroke-width:4; stroke-opacity:1; fill:none" points="
  1212.51,1487.47 1212.51,1465.87 
  "/>
<polyline clip-path="url(#clip6300)" style="stroke:#000000; stroke-width:4; stroke-opacity:1; fill:none" points="
  1715.72,1487.47 1715.72,1465.87 
  "/>
<polyline clip-path="url(#clip6300)" style="stroke:#000000; stroke-width:4; stroke-opacity:1; fill:none" points="
  2218.93,1487.47 2218.93,1465.87 
  "/>
<polyline clip-path="url(#clip6300)" style="stroke:#000000; stroke-width:4; stroke-opacity:1; fill:none" points="
  141.865,1259.12 175.028,1259.12 
  "/>
<polyline clip-path="url(#clip6300)" style="stroke:#000000; stroke-width:4; stroke-opacity:1; fill:none" points="
  141.865,1002.09 175.028,1002.09 
  "/>
<polyline clip-path="url(#clip6300)" style="stroke:#000000; stroke-width:4; stroke-opacity:1; fill:none" points="
  141.865,745.063 175.028,745.063 
  "/>
<polyline clip-path="url(#clip6300)" style="stroke:#000000; stroke-width:4; stroke-opacity:1; fill:none" points="
  141.865,488.033 175.028,488.033 
  "/>
<polyline clip-path="url(#clip6300)" style="stroke:#000000; stroke-width:4; stroke-opacity:1; fill:none" points="
  141.865,231.004 175.028,231.004 
  "/>
<g clip-path="url(#clip6300)">
<text style="fill:#000000; fill-opacity:1; font-family:Arial,Helvetica Neue,Helvetica,sans-serif; font-size:48px; text-anchor:middle;" transform="rotate(0, 206.087, 1541.47)" x="206.087" y="1541.47">-0.25</text>
</g>
<g clip-path="url(#clip6300)">
<text style="fill:#000000; fill-opacity:1; font-family:Arial,Helvetica Neue,Helvetica,sans-serif; font-size:48px; text-anchor:middle;" transform="rotate(0, 709.299, 1541.47)" x="709.299" y="1541.47">0.00</text>
</g>
<g clip-path="url(#clip6300)">
<text style="fill:#000000; fill-opacity:1; font-family:Arial,Helvetica Neue,Helvetica,sans-serif; font-size:48px; text-anchor:middle;" transform="rotate(0, 1212.51, 1541.47)" x="1212.51" y="1541.47">0.25</text>
</g>
<g clip-path="url(#clip6300)">
<text style="fill:#000000; fill-opacity:1; font-family:Arial,Helvetica Neue,Helvetica,sans-serif; font-size:48px; text-anchor:middle;" transform="rotate(0, 1715.72, 1541.47)" x="1715.72" y="1541.47">0.50</text>
</g>
<g clip-path="url(#clip6300)">
<text style="fill:#000000; fill-opacity:1; font-family:Arial,Helvetica Neue,Helvetica,sans-serif; font-size:48px; text-anchor:middle;" transform="rotate(0, 2218.93, 1541.47)" x="2218.93" y="1541.47">0.75</text>
</g>
<g clip-path="url(#clip6300)">
<text style="fill:#000000; fill-opacity:1; font-family:Arial,Helvetica Neue,Helvetica,sans-serif; font-size:48px; text-anchor:end;" transform="rotate(0, 117.865, 1276.62)" x="117.865" y="1276.62">-2</text>
</g>
<g clip-path="url(#clip6300)">
<text style="fill:#000000; fill-opacity:1; font-family:Arial,Helvetica Neue,Helvetica,sans-serif; font-size:48px; text-anchor:end;" transform="rotate(0, 117.865, 1019.59)" x="117.865" y="1019.59">-1</text>
</g>
<g clip-path="url(#clip6300)">
<text style="fill:#000000; fill-opacity:1; font-family:Arial,Helvetica Neue,Helvetica,sans-serif; font-size:48px; text-anchor:end;" transform="rotate(0, 117.865, 762.563)" x="117.865" y="762.563">0</text>
</g>
<g clip-path="url(#clip6300)">
<text style="fill:#000000; fill-opacity:1; font-family:Arial,Helvetica Neue,Helvetica,sans-serif; font-size:48px; text-anchor:end;" transform="rotate(0, 117.865, 505.533)" x="117.865" y="505.533">1</text>
</g>
<g clip-path="url(#clip6300)">
<text style="fill:#000000; fill-opacity:1; font-family:Arial,Helvetica Neue,Helvetica,sans-serif; font-size:48px; text-anchor:end;" transform="rotate(0, 117.865, 248.504)" x="117.865" y="248.504">2</text>
</g>
<polyline clip-path="url(#clip6302)" style="stroke:#009af9; stroke-width:4; stroke-opacity:1; fill:none" points="
  2290.18,745.063 2290.18,759.355 2289.15,775.743 2286.95,794.401 2283.4,815.484 2278.32,839.121 2271.53,865.401 2262.8,894.354 2251.92,925.939 2238.62,960.028 
  2222.67,996.389 2203.77,1034.68 2181.69,1074.45 2156.15,1115.14 2126.95,1156.09 2093.92,1196.59 2056.94,1235.9 2016,1273.27 1971.19,1308.02 1922.65,1339.55 
  1870.68,1367.39 1815.6,1391.18 1757.82,1410.71 1697.82,1425.94 1636.06,1436.89 1573.04,1443.74 1509.23,1446.71 1445.08,1446.11 1381.01,1442.24 1317.41,1435.46 
  1254.59,1426.1 1192.86,1414.5 1132.44,1400.97 1073.54,1385.8 1016.32,1369.24 960.906,1351.54 907.4,1332.89 855.872,1313.5 806.375,1293.5 758.941,1273.04 
  713.589,1252.23 670.325,1231.17 629.148,1209.94 590.047,1188.61 553.005,1167.23 518.001,1145.84 485.012,1124.48 454.011,1103.18 424.971,1081.96 397.861,1060.82 
  372.654,1039.79 349.32,1018.85 327.83,998.026 308.155,977.3 290.267,956.672 274.141,936.138 259.751,915.689 247.071,895.317 236.079,875.014 226.753,854.77 
  219.071,834.575 213.016,814.421 208.569,794.297 205.714,774.195 204.437,754.108 204.724,734.026 206.564,713.945 209.948,693.859 214.869,673.764 221.32,653.655 
  229.3,633.533 238.807,613.395 249.843,593.244 262.413,573.08 276.525,552.909 292.188,532.736 309.417,512.567 328.228,492.41 348.642,472.276 370.682,452.177 
  394.376,432.124 419.756,412.133 446.854,392.219 475.708,372.4 506.358,352.695 538.848,333.124 573.221,313.709 609.524,294.474 647.806,275.442 688.113,256.64 
  730.493,238.095 774.992,219.837 821.653,201.895 870.516,184.301 921.617,167.088 974.985,150.291 1030.64,133.945 1088.61,118.09 1148.88,102.763 1211.45,88.0053 
  
  "/>
<path clip-path="url(#clip6300)" d="
M1989.93 251.724 L2280.76 251.724 L2280.76 130.764 L1989.93 130.764  Z
  " fill="#ffffff" fill-rule="evenodd" fill-opacity="1"/>
<polyline clip-path="url(#clip6300)" style="stroke:#000000; stroke-width:4; stroke-opacity:1; fill:none" points="
  1989.93,251.724 2280.76,251.724 2280.76,130.764 1989.93,130.764 1989.93,251.724 
  "/>
<polyline clip-path="url(#clip6300)" style="stroke:#009af9; stroke-width:4; stroke-opacity:1; fill:none" points="
  2013.93,191.244 2157.93,191.244 
  "/>
<g clip-path="url(#clip6300)">
<text style="fill:#000000; fill-opacity:1; font-family:Arial,Helvetica Neue,Helvetica,sans-serif; font-size:48px; text-anchor:start;" transform="rotate(0, 2181.93, 208.744)" x="2181.93" y="208.744">y1</text>
</g>
</svg>